<?xml version="1.0" encoding="utf-8"?>
<!-- Generator: Adobe Illustrator 16.0.0, SVG Export Plug-In . SVG Version: 6.00 Build 0)  -->
<!DOCTYPE svg PUBLIC "-//W3C//DTD SVG 1.1//EN" "http://www.w3.org/Graphics/SVG/1.1/DTD/svg11.dtd">
<svg version="1.1" id="AngularJS" xmlns="http://www.w3.org/2000/svg" xmlns:xlink="http://www.w3.org/1999/xlink" x="0px" y="0px"
	 width="94.643px" height="109.284px" viewBox="38.929 42.943 94.643 109.284"
	 enable-background="new 38.929 42.943 94.643 109.284" xml:space="preserve">
<g id="Layer_18">
	<polygon fill="#231F20" points="113.85,116.656 84.488,136.6 55.127,116.656 49.945,76.772 84.488,56.828 119.031,76.772 	"/>
</g>
<polygon fill="#FFFFFF" points="110.913,114.663 84.488,132.613 58.063,114.663 53.4,78.766 84.488,60.817 115.577,78.766 "/>
<g id="Layer_17">
	<g>
		<polygon fill="#231F20" points="97.066,102.367 73.052,102.367 65.975,119.385 65.65,120.18 84.488,132.974 104.592,119.32 		"/>
		<polygon fill="#231F20" points="74.085,99.902 95.953,99.902 84.582,74.06 		"/>
		<polygon fill="#231F20" points="84.488,60.454 53.086,78.585 57.796,114.845 63.1,118.446 82.991,70.083 86.172,70.083 
			107.16,117.576 111.181,114.845 115.891,78.585 		"/>
	</g>
</g>
<g id="Layer_16">
	<g>
		<g>
			<g>
				<g>
					<defs>
						<rect id="SVGID_1_" x="40.42" y="47.104" width="44.068" height="94.518"/>
					</defs>
					<clipPath id="SVGID_2_">
						<use xlink:href="#SVGID_1_"  overflow="visible"/>
					</clipPath>
					<g opacity="0.3" clip-path="url(#SVGID_2_)">
						<polyline fill="#CECECE" points="65.975,119.385 65.65,120.18 84.488,132.974 104.592,119.32 97.066,102.367 73.052,102.367 
							65.975,119.385 						"/>
						<polygon fill="#CECECE" points="74.085,99.902 95.953,99.902 84.582,74.06 						"/>
						<polygon fill="#CECECE" points="84.488,60.454 53.086,78.585 57.796,114.845 63.1,118.446 82.991,70.083 86.172,70.083 
							107.16,117.576 111.181,114.845 115.891,78.585 						"/>
					</g>
				</g>
			</g>
		</g>
	</g>
</g>
</svg>
