<?xml version="1.0" encoding="utf-8"?>
<!-- Generator: Adobe Illustrator 16.0.0, SVG Export Plug-In . SVG Version: 6.00 Build 0)  -->
<!DOCTYPE svg PUBLIC "-//W3C//DTD SVG 1.1//EN" "http://www.w3.org/Graphics/SVG/1.1/DTD/svg11.dtd">
<svg version="1.1" id="Layer_1" xmlns="http://www.w3.org/2000/svg" xmlns:xlink="http://www.w3.org/1999/xlink" x="0px" y="0px"
	 width="300px" height="500px" viewBox="0 0 300 500" enable-background="new 0 0 300 500" xml:space="preserve">
<g id="Layer_1_1_">
</g>
<g id="HTML">
	<g id="Layer_11">
		<g>
			<polyline fill="#FFFFFF" points="-185.154,-231.822 -268.666,-315.334 -185.154,-398.846 			"/>
			<polygon fill="#231F20" points="-206.367,-210.609 -311.092,-315.334 -206.367,-420.059 -163.94,-377.633 -226.239,-315.334 
				-163.94,-253.035 			"/>
		</g>
	</g>
	<g id="Layer_10">
		<g>
			<polyline fill="#FFFFFF" points="-154.847,-398.846 -71.334,-315.334 -154.847,-231.822 			"/>
			<polygon fill="#231F20" points="-133.633,-210.608 -176.06,-253.035 -113.761,-315.334 -176.06,-377.633 -133.633,-420.06 
				-28.908,-315.334 			"/>
		</g>
	</g>
	<g id="Layer_9">
		<g opacity="0.3">
			<g>
				<defs>
					
						<rect id="SVGID_1_" x="-396.899" y="-588.695" transform="matrix(-0.8817 0.4718 -0.4718 -0.8817 -661.3556 -710.0837)" width="310.483" height="301.484"/>
				</defs>
				<clipPath id="SVGID_2_">
					<use xlink:href="#SVGID_1_"  overflow="visible"/>
				</clipPath>
				<g clip-path="url(#SVGID_2_)">
					<polyline fill="#FFFFFF" points="-185.154,-231.822 -268.666,-315.334 -185.154,-398.846 					"/>
					<polygon fill="#CECECE" points="-206.367,-210.609 -311.092,-315.334 -206.367,-420.059 -163.94,-377.633 -226.239,-315.334 
						-163.94,-253.035 					"/>
				</g>
			</g>
			<g>
				<defs>
					
						<rect id="SVGID_3_" x="-396.899" y="-588.695" transform="matrix(-0.8817 0.4718 -0.4718 -0.8817 -661.3556 -710.0837)" width="310.483" height="301.484"/>
				</defs>
				<clipPath id="SVGID_4_">
					<use xlink:href="#SVGID_3_"  overflow="visible"/>
				</clipPath>
				<g clip-path="url(#SVGID_4_)">
					<polyline display="none" fill="#FFFFFF" points="-154.847,-398.846 -71.334,-315.334 -154.847,-231.822 					"/>
					<polygon fill="#CECECE" points="-133.633,-210.608 -176.06,-253.035 -113.761,-315.334 -176.06,-377.633 -133.633,-420.06 
						-28.908,-315.334 					"/>
				</g>
			</g>
		</g>
	</g>
	<g id="Layer_4">
	</g>
	<g id="Layer_3">
	</g>
</g>
<g id="Layer_8">
	<rect x="27.589" y="-398.846" fill="#231F20" width="247.487" height="37.954"/>
</g>
<g id="Layer_8_copy" opacity="0.3">
	<g>
		<g>
			<defs>
				<rect id="SVGID_5_" x="20.09" y="-516.285" width="129.91" height="234.876"/>
			</defs>
			<clipPath id="SVGID_6_">
				<use xlink:href="#SVGID_5_"  overflow="visible"/>
			</clipPath>
			<rect x="27.589" y="-398.846" clip-path="url(#SVGID_6_)" fill="#CECECE" width="247.487" height="37.954"/>
		</g>
	</g>
</g>
<g id="Layer_7">
	
		<rect x="16.531" y="-337.45" transform="matrix(-0.7071 0.7071 -0.7071 -0.7071 -183.693 -576.6931)" fill="#231F20" width="22.119" height="22.119"/>
	<g opacity="0.3" enable-background="new    ">
		<g>
			<defs>
				
					<rect id="SVGID_7_" x="2.176" y="-339.803" transform="matrix(-0.7071 0.7071 -0.7071 -0.7071 -189.42 -546.4801)" width="32.587" height="54.666"/>
			</defs>
			<clipPath id="SVGID_8_">
				<use xlink:href="#SVGID_7_"  overflow="visible"/>
			</clipPath>
			
				<rect x="16.531" y="-337.45" transform="matrix(-0.7071 0.7071 -0.7071 -0.7071 -183.693 -576.6931)" clip-path="url(#SVGID_8_)" fill="#CECECE" width="22.119" height="22.119"/>
		</g>
	</g>
</g>
<g id="Layer_6">
</g>
<g id="Layer_5">
	<polygon fill="#231F20" points="276.635,-326.394 280.286,-332.719 285.992,-342.602 274.58,-342.602 263.168,-342.602 
		268.874,-332.719 272.525,-326.394 268.874,-320.068 263.168,-310.186 274.58,-310.186 285.992,-310.186 280.286,-320.068 	"/>
</g>
<g id="Layer_5_copy">
	<g>
		<g>
			<defs>
				<rect id="SVGID_9_" x="229.668" y="-350.333" width="44.912" height="49.333"/>
			</defs>
			<clipPath id="SVGID_10_">
				<use xlink:href="#SVGID_9_"  overflow="visible"/>
			</clipPath>
			<polygon opacity="0.3" clip-path="url(#SVGID_10_)" fill="#CECECE" enable-background="new    " points="276.635,-326.394 
				280.286,-332.719 285.992,-342.602 274.58,-342.602 263.168,-342.602 268.874,-332.719 272.525,-326.394 268.874,-320.068 
				263.168,-310.186 274.58,-310.186 285.992,-310.186 280.286,-320.068 			"/>
		</g>
	</g>
</g>
<g id="AngularJS">
	<g id="Layer_18">
		<polygon fill="#231F20" points="252.477,328.783 148.723,399.258 44.969,328.783 26.659,187.837 148.723,117.364 270.786,187.837 
					"/>
	</g>
	<polygon fill="#FFFFFF" points="242.102,321.736 148.723,385.163 55.344,321.736 38.866,194.885 148.723,131.459 258.58,194.885 	
		"/>
	<g id="Layer_17">
		<g>
			<polygon fill="#231F20" points="193.17,278.285 108.31,278.285 83.301,338.421 82.158,341.23 148.723,386.445 219.764,338.191 
							"/>
			<polygon fill="#231F20" points="111.962,269.575 189.234,269.575 149.053,178.253 			"/>
			<polygon fill="#231F20" points="148.723,130.178 37.756,194.244 54.401,322.377 73.143,335.105 143.433,164.202 154.673,164.202 
				228.84,332.025 243.045,322.377 259.689,194.244 			"/>
		</g>
	</g>
	<g id="Layer_16">
		<g>
			<g>
				<defs>
					<rect id="SVGID_11_" x="-7" y="83" width="155.723" height="334"/>
				</defs>
				<clipPath id="SVGID_12_">
					<use xlink:href="#SVGID_11_"  overflow="visible"/>
				</clipPath>
				<g opacity="0.3" clip-path="url(#SVGID_12_)">
					<polyline fill="#CECECE" points="83.301,338.421 82.158,341.23 148.723,386.445 219.764,338.191 193.17,278.285 
						108.31,278.285 83.301,338.421 					"/>
					<polygon fill="#CECECE" points="111.962,269.575 189.234,269.575 149.053,178.253 					"/>
					<polygon fill="#CECECE" points="148.723,130.178 37.756,194.244 54.401,322.377 73.143,335.105 143.433,164.202 
						154.673,164.202 228.84,332.025 243.045,322.377 259.689,194.244 					"/>
				</g>
			</g>
		</g>
	</g>
</g>
<g id="Layer_18_copy">
	<g>
		<g>
			<path d="M-397,901.5c3.224,0,3.224-5,0-5S-400.224,901.5-397,901.5L-397,901.5z"/>
		</g>
	</g>
</g>
</svg>
