<?xml version="1.0" encoding="utf-8"?>
<!-- Generator: Adobe Illustrator 16.0.0, SVG Export Plug-In . SVG Version: 6.00 Build 0)  -->
<!DOCTYPE svg PUBLIC "-//W3C//DTD SVG 1.1//EN" "http://www.w3.org/Graphics/SVG/1.1/DTD/svg11.dtd">
<svg version="1.1" xmlns="http://www.w3.org/2000/svg" xmlns:xlink="http://www.w3.org/1999/xlink" x="0px" y="0px" width="300px"
	 height="158px" viewBox="0 0 300 158" enable-background="new 0 0 300 158" xml:space="preserve">
<g id="Layer_1" display="none">
</g>
<g id="Layer_8">
	<rect x="27.589" y="60.154" fill="#231F20" width="247.487" height="37.954"/>
</g>
<g id="Layer_8_copy" opacity="0.3">
	<g>
		<defs>
			<rect id="SVGID_1_" x="20.09" y="-57.285" width="129.91" height="234.876"/>
		</defs>
		<clipPath id="SVGID_2_">
			<use xlink:href="#SVGID_1_"  overflow="visible"/>
		</clipPath>
		<rect x="27.589" y="60.154" clip-path="url(#SVGID_2_)" fill="#CECECE" width="247.487" height="37.954"/>
	</g>
</g>
<g id="Layer_7">
	
		<rect x="16.529" y="121.547" transform="matrix(0.7071 -0.7071 0.7071 0.7071 -85.6863 58.3478)" fill="#231F20" width="22.119" height="22.119"/>
	<g opacity="0.3">
		<defs>
			<rect id="SVGID_3_" x="-4.998" y="108.667" opacity="0.3" width="32.587" height="54.667"/>
		</defs>
		<clipPath id="SVGID_4_">
			<use xlink:href="#SVGID_3_"  overflow="visible"/>
		</clipPath>
		
			<rect x="16.529" y="121.547" transform="matrix(0.7071 -0.7071 0.7071 0.7071 -85.6863 58.3478)" clip-path="url(#SVGID_4_)" fill="#CECECE" width="22.119" height="22.119"/>
	</g>
</g>
<g id="Layer_5">
	<polygon fill="#231F20" points="276.635,132.606 280.286,126.281 285.992,116.398 274.58,116.398 263.168,116.398 268.874,126.281 
		272.525,132.606 268.874,138.932 263.168,148.814 274.58,148.814 285.992,148.814 280.286,138.932 	"/>
</g>
<g id="Layer_5_copy">
	<g>
		<defs>
			<rect id="SVGID_5_" x="229.668" y="108.667" width="44.912" height="49.333"/>
		</defs>
		<clipPath id="SVGID_6_">
			<use xlink:href="#SVGID_5_"  overflow="visible"/>
		</clipPath>
		<polygon opacity="0.3" clip-path="url(#SVGID_6_)" fill="#CECECE" points="276.635,132.606 280.286,126.281 285.992,116.398 
			274.58,116.398 263.168,116.398 268.874,126.281 272.525,132.606 268.874,138.932 263.168,148.814 274.58,148.814 
			285.992,148.814 280.286,138.932 		"/>
	</g>
</g>
</svg>
