<?xml version="1.0" encoding="utf-8"?>
<!-- Generator: Adobe Illustrator 16.0.0, SVG Export Plug-In . SVG Version: 6.00 Build 0)  -->
<!DOCTYPE svg PUBLIC "-//W3C//DTD SVG 1.1//EN" "http://www.w3.org/Graphics/SVG/1.1/DTD/svg11.dtd">
<svg version="1.1" id="HTML" xmlns="http://www.w3.org/2000/svg" xmlns:xlink="http://www.w3.org/1999/xlink" x="0px" y="0px"
	 width="282.184px" height="209.453px" viewBox="0 0 282.184 209.453" enable-background="new 0 0 282.184 209.453"
	 xml:space="preserve">
<g id="Layer_11">
	<g>
		<polygon fill="#231F20" points="104.725,209.451 -0.001,104.725 104.725,0 147.153,42.426 84.853,104.725 147.153,167.024 		"/>
	</g>
</g>
<g id="Layer_10">
	<g>
		<polygon fill="#231F20" points="177.458,209.453 135.031,167.024 197.329,104.725 135.031,42.426 177.458,0 282.184,104.725 		"/>
	</g>
</g>
<g id="Layer_4">
</g>
<g id="Reflection">
	<g opacity="0.3">
		<g>
			<g>
				<defs>
					
						<rect id="SVGID_1_" x="-85.814" y="-168.645" transform="matrix(0.8817 -0.4718 0.4718 0.8817 16.6602 30.6377)" width="310.481" height="301.481"/>
				</defs>
				<clipPath id="SVGID_2_">
					<use xlink:href="#SVGID_1_"  overflow="visible"/>
				</clipPath>
				<g clip-path="url(#SVGID_2_)">
					<polygon fill="#CECECE" points="104.725,209.451 -0.001,104.725 104.725,0 147.153,42.426 84.853,104.725 147.153,167.024 
											"/>
				</g>
			</g>
		</g>
		<g>
			<g>
				<defs>
					
						<rect id="SVGID_3_" x="-85.814" y="-168.645" transform="matrix(0.8817 -0.4718 0.4718 0.8817 16.6602 30.6377)" width="310.481" height="301.481"/>
				</defs>
				<clipPath id="SVGID_4_">
					<use xlink:href="#SVGID_3_"  overflow="visible"/>
				</clipPath>
				<g clip-path="url(#SVGID_4_)">
					<polygon fill="#CECECE" points="177.458,209.453 135.031,167.024 197.329,104.725 135.031,42.426 177.458,0 282.184,104.725 
											"/>
				</g>
			</g>
		</g>
	</g>
</g>
</svg>
