<?xml version="1.0" encoding="utf-8"?>
<!-- Generator: Adobe Illustrator 16.0.0, SVG Export Plug-In . SVG Version: 6.00 Build 0)  -->
<!DOCTYPE svg PUBLIC "-//W3C//DTD SVG 1.1//EN" "http://www.w3.org/Graphics/SVG/1.1/DTD/svg11.dtd">
<svg version="1.1" xmlns="http://www.w3.org/2000/svg" xmlns:xlink="http://www.w3.org/1999/xlink" x="0px" y="0px" width="300px"
	 height="500px" viewBox="0 0 300 500" enable-background="new 0 0 300 500" xml:space="preserve">
<g id="Layer_1">
</g>
<g id="HTML">
	<g id="Layer_11">
		<g>
			<polyline fill="#FFFFFF" points="134.846,288.178 51.334,204.666 134.846,121.154 			"/>
			<polygon fill="#231F20" points="113.633,309.391 8.908,204.666 113.633,99.941 156.06,142.367 93.761,204.666 156.06,266.965 			
				"/>
		</g>
	</g>
	<g id="Layer_10">
		<g>
			<polyline fill="#FFFFFF" points="165.153,121.154 248.666,204.666 165.153,288.178 			"/>
			<polygon fill="#231F20" points="186.367,309.392 143.94,266.965 206.239,204.666 143.94,142.367 186.367,99.94 291.092,204.666 
							"/>
		</g>
	</g>
	<g id="Layer_9">
		<g opacity="0.3">
			<defs>
				
					<rect id="SVGID_1_" x="-76.89" y="-68.715" transform="matrix(0.8817 -0.4718 0.4718 0.8817 -29.4304 46.6655)" opacity="0.3" width="310.484" height="301.485"/>
			</defs>
			<clipPath id="SVGID_2_">
				<use xlink:href="#SVGID_1_"  overflow="visible"/>
			</clipPath>
			<g clip-path="url(#SVGID_2_)">
				<polyline fill="#FFFFFF" points="134.846,288.178 51.334,204.666 134.846,121.154 				"/>
				<polygon fill="#CECECE" points="113.633,309.391 8.908,204.666 113.633,99.941 156.06,142.367 93.761,204.666 156.06,266.965 
									"/>
			</g>
			<g clip-path="url(#SVGID_2_)">
				<polyline display="none" fill="#FFFFFF" points="165.153,121.154 248.666,204.666 165.153,288.178 				"/>
				<polygon fill="#CECECE" points="186.367,309.392 143.94,266.965 206.239,204.666 143.94,142.367 186.367,99.94 291.092,204.666 
									"/>
			</g>
		</g>
	</g>
	<g id="Layer_4">
	</g>
	<g id="Layer_3">
	</g>
</g>
<g id="Layer_8">
	<rect x="347.589" y="121.154" fill="#231F20" width="247.487" height="37.954"/>
</g>
<g id="Layer_8_copy" opacity="0.3">
	<g>
		<defs>
			<rect id="SVGID_3_" x="340.09" y="3.715" width="129.91" height="234.876"/>
		</defs>
		<clipPath id="SVGID_4_">
			<use xlink:href="#SVGID_3_"  overflow="visible"/>
		</clipPath>
		<rect x="347.589" y="121.154" clip-path="url(#SVGID_4_)" fill="#CECECE" width="247.487" height="37.954"/>
	</g>
</g>
<g id="Layer_7">
	
		<rect x="336.529" y="182.547" transform="matrix(0.7071 -0.7071 0.7071 0.7071 -35.094 302.4885)" fill="#231F20" width="22.119" height="22.119"/>
	<g opacity="0.3">
		<defs>
			<rect id="SVGID_5_" x="315.002" y="169.667" opacity="0.3" width="32.587" height="54.667"/>
		</defs>
		<clipPath id="SVGID_6_">
			<use xlink:href="#SVGID_5_"  overflow="visible"/>
		</clipPath>
		
			<rect x="336.529" y="182.547" transform="matrix(0.7071 -0.7071 0.7071 0.7071 -35.094 302.4885)" clip-path="url(#SVGID_6_)" fill="#CECECE" width="22.119" height="22.119"/>
	</g>
</g>
<g id="Layer_6">
</g>
<g id="Layer_5">
	<polygon fill="#231F20" points="596.635,193.606 600.286,187.281 605.992,177.398 594.58,177.398 583.168,177.398 588.874,187.281 
		592.525,193.606 588.874,199.932 583.168,209.814 594.58,209.814 605.992,209.814 600.286,199.932 	"/>
</g>
<g id="Layer_5_copy">
	<g>
		<defs>
			<rect id="SVGID_7_" x="549.668" y="169.667" width="44.912" height="49.333"/>
		</defs>
		<clipPath id="SVGID_8_">
			<use xlink:href="#SVGID_7_"  overflow="visible"/>
		</clipPath>
		<polygon opacity="0.3" clip-path="url(#SVGID_8_)" fill="#CECECE" points="596.635,193.606 600.286,187.281 605.992,177.398 
			594.58,177.398 583.168,177.398 588.874,187.281 592.525,193.606 588.874,199.932 583.168,209.814 594.58,209.814 
			605.992,209.814 600.286,199.932 		"/>
	</g>
</g>
<g id="AngularJS">
	<g id="Layer_18">
		<polygon fill="#231F20" points="272.477,903.283 168.723,973.758 64.969,903.283 46.659,762.337 168.723,691.864 290.786,762.337 
					"/>
	</g>
	<polygon fill="#FFFFFF" points="262.102,896.236 168.723,959.663 75.344,896.236 58.866,769.385 168.723,705.959 278.58,769.385 	
		"/>
	<g id="Layer_17">
		<g>
			<polygon fill="#231F20" points="213.17,852.785 128.31,852.785 103.301,912.921 102.158,915.73 168.723,960.945 239.763,912.691 
							"/>
			<polygon fill="#231F20" points="131.962,844.075 209.235,844.075 169.053,752.753 			"/>
			<polygon fill="#231F20" points="168.723,704.678 57.756,768.744 74.401,896.877 93.143,909.606 163.433,738.702 174.673,738.702 
				248.84,906.525 263.045,896.877 279.689,768.744 			"/>
		</g>
	</g>
	<g id="Layer_16">
		<g>
			<defs>
				<rect id="SVGID_9_" x="13" y="657.5" width="155.723" height="334"/>
			</defs>
			<clipPath id="SVGID_10_">
				<use xlink:href="#SVGID_9_"  overflow="visible"/>
			</clipPath>
			<g opacity="0.3" clip-path="url(#SVGID_10_)">
				<polyline fill="#CECECE" points="103.301,912.921 102.158,915.73 168.723,960.945 239.763,912.691 213.17,852.785 
					128.31,852.785 103.301,912.921 				"/>
				<polygon fill="#CECECE" points="131.962,844.075 209.235,844.075 169.053,752.753 				"/>
				<polygon fill="#CECECE" points="168.723,704.678 57.756,768.744 74.401,896.877 93.143,909.606 163.433,738.702 
					174.673,738.702 248.84,906.525 263.045,896.877 279.689,768.744 				"/>
			</g>
		</g>
	</g>
</g>
<g id="Layer_18_copy">
	<rect x="31" y="543" fill="none" width="246" height="74"/>
	<text transform="matrix(1 0 0 1 31 577.0801)" font-family="'QuaverSans'" font-size="48">MVC</text>
	<rect x="357" y="3.715" fill="none" width="230" height="85.285"/>
	<text transform="matrix(1 0 0 1 357 37.7949)" font-family="'QuaverSans'" font-size="48">animation</text>
	<g>
		<g>
			<path d="M411,699.5c3.225,0,3.225-5,0-5S407.775,699.5,411,699.5L411,699.5z"/>
		</g>
	</g>
	<g>
		<g>
			<path d="M-77,1421.5c3.224,0,3.224-5,0-5S-80.224,1421.5-77,1421.5L-77,1421.5z"/>
		</g>
	</g>
</g>
</svg>
