<?xml version="1.0" encoding="utf-8"?>
<!-- Generator: Adobe Illustrator 16.0.0, SVG Export Plug-In . SVG Version: 6.00 Build 0)  -->
<!DOCTYPE svg PUBLIC "-//W3C//DTD SVG 1.1//EN" "http://www.w3.org/Graphics/SVG/1.1/DTD/svg11.dtd">
<svg version="1.1" xmlns="http://www.w3.org/2000/svg" xmlns:xlink="http://www.w3.org/1999/xlink" x="0px" y="0px"
	 width="249.334px" height="102px" viewBox="0 0 249.334 102" enable-background="new 0 0 249.334 102" xml:space="preserve">
<g id="Layer_1" display="none">
</g>
<g id="HTML">
	<g id="Layer_11">
	</g>
	<g id="Layer_10">
	</g>
	<g id="Layer_9">
	</g>
	<g id="Layer_4">
	</g>
	<g id="Layer_3">
	</g>
</g>
<g id="Layer_8">
</g>
<g id="Layer_8_copy" opacity="0.3">
</g>
<g id="Layer_7">
</g>
<g id="Layer_6">
</g>
<g id="Layer_5">
</g>
<g id="Layer_5_copy">
</g>
<g id="AngularJS">
	<g id="Layer_18">
	</g>
	<g id="Layer_17">
	</g>
	<g id="Layer_16">
	</g>
</g>
<g id="Layer_19_copy">
	<path fill-rule="evenodd" clip-rule="evenodd" d="M20.176,42.723c-1.414,2.16-2.691,4.207-4.063,6.188
		c-2.292,3.307-4.666,6.557-6.962,9.86c-1.286,1.85-2.758,0.937-4.188,0.354c-1.645-0.669-1.287-2.046-0.699-3.096
		c1.326-2.368,2.878-4.609,4.32-6.913c3.696-5.901,7.345-11.834,11.112-17.689c0.65-1.011,1.666-2.145,2.734-2.452
		c2.188-0.628,3.564,0.415,3.753,2.771c0.289,3.614,0.293,7.252,0.41,10.88c0.021,0.662,0.003,1.325,0.003,2.415
		c1.758-2.024,3.23-3.778,4.766-5.475c2.746-3.035,5.488-6.076,8.312-9.04c2.884-3.028,6.436-3.779,8.631-1.517
		c1.159,1.195,1.985,3.151,2.104,4.824c0.226,3.187-0.22,6.415-0.269,9.628c-0.02,1.235,0.285,2.476,0.442,3.713
		c0.228,0.044,0.455,0.088,0.683,0.132c1.093-3.318,2.572-6.565,3.191-9.97c1.025-5.641,4.255-10.299,10.915-10.884
		c2.527-0.222,5.135,2.564,4.999,5.597c-0.133,2.968-0.42,5.93-0.434,8.978c0.941-3.467,1.9-6.93,2.82-10.403
		c0.561-2.117,1.918-3.141,4.015-3.501c2.188-0.376,4.339-1.027,6.469-1.679c1.69-0.518,3.298-1.306,4.988-1.818
		c4.302-1.305,7.297,2.443,7.287,5.667c-0.013,4.165,0.172,8.336,0.437,12.494c0.058,0.905,0.815,1.766,1.251,2.646
		c0.742-0.378,1.583-0.635,2.212-1.15c5.411-4.44,8.59-10.275,10.579-16.892c0.899-2.993,1.772-4.311,4.45-4.182
		c2.442,0.118,3.149,2.126,3.812,3.762c1.516,3.74,2.662,7.63,4.16,12.053c0.994-2.247,2.17-4.094,2.637-6.105
		c1.518-6.533,6.131-9.705,12.009-11.595c2.172-0.698,6.449,0.646,7.269,2.393c0.463,0.985,0.674,2.465,0.262,3.396
		c-0.56,1.262-1.979,1.971-3.492,1.384c-1.829-0.711-3.489-0.951-5.175,0.426c-2.091,1.706-3.629,3.766-4.105,6.408
		c-0.349,1.94-0.453,3.954-0.412,5.929c0.042,2.029,0.897,2.473,2.888,2.038c1.769-0.386,3.761-0.229,5.317-0.995
		c3.4-1.676,6.315-4.183,7.7-7.805c1.162-3.043,1.811-6.292,2.57-9.478c0.53-2.226,1.714-3.585,3.974-3.758
		c3.38-0.258,6.774-0.484,10.161-0.458c3.529,0.028,5.217,2.996,3.618,6.306c-0.942,1.952-2.291,3.704-3.318,5.621
		c-0.64,1.192-1.105,2.497-1.492,3.798c-0.501,1.687-0.1,3.04,1.622,3.936c1.656,0.862,2.754,0.185,3.987-0.877
		c2.456-2.117,3.556-4.919,4.362-7.91c0.785-2.908,1.513-5.832,2.368-8.719c0.447-1.511,1.026-3.076,2.874-3.412
		c2.756-0.501,4.52,1.31,3.994,4.256c-0.822,4.615-1.807,9.201-2.708,13.802c-0.087,0.44-0.073,0.899-0.106,1.35
		c5.517-4.058,7.645-10.244,10.418-15.977c0.854-1.763,1.676-3.065,3.838-2.829c1.843,0.202,2.84,1.393,3.231,4.005
		c1.061-0.819,2.128-1.529,3.058-2.388c1.776-1.639,3.805-1.783,5.918-1.027c4.531,1.621,6.136,4.654,6.476,8.991
		c0.104,1.328,0.017,2.671,0.017,4.435c4.663-4.191,7.916-8.884,11.01-13.965c-1.847-0.191-3.442-0.508-5.033-0.484
		c-2.321,0.035-2.792-1.663-2.434-3.106c0.242-0.978,1.77-2.111,2.87-2.298c2.135-0.361,4.375-0.152,6.568-0.083
		c1.153,0.036,1.756-0.284,2.318-1.423c0.956-1.936,2.334-3.659,3.462-5.516c0.943-1.551,2.522-1.785,3.752-1.116
		c1.007,0.549,1.916,1.955,2.125,3.116c0.253,1.399-0.279,2.94-0.528,4.855c1.584,0,3.177-0.004,4.77,0.001
		c1.855,0.005,3.087,1.16,3.194,2.985c0.081,1.399-1.467,2.826-3.109,2.86c-0.48,0.01-0.961,0.006-1.442,0.003
		c-6.083-0.038-6.226-0.095-8.524,5.649c-1.472,3.678-2.449,7.554-3.648,11.341c0.174,0.176,0.349,0.353,0.523,0.528
		c2.396-1.031,4.78-2.09,7.189-3.087c2.328-0.964,4.669-1.896,7.029-2.776c0.965-0.36,3.342,1.031,3.673,2.042
		c0.339,1.03-0.837,3.471-2.062,3.92c-5.149,1.891-10.324,3.709-15.49,5.554c-4.05,1.446-6.587-1.86-6.674-4.995
		c-0.06-2.123,0.511-4.263,0.801-6.406c-0.503,0.528-1.15,1.1-1.669,1.771c-3.993,5.166-8.815,9.278-14.995,11.567
		c-4.785,1.773-9.068,0.568-13.377-3.118c-1.486,4.341-2.953,8.335-4.217,12.393c-1.352,4.339-2.226,8.854-4.921,12.658
		c-1.31,1.85-3.001,2.333-5.222,1.551c-1.955-0.688-2.704-2.361-2.254-4.106c0.728-2.816,1.756-5.586,2.956-8.241
		c1.991-4.406,4.227-8.702,6.334-13.057c0.166-0.343,0.139-0.78,0.264-1.567c-2.559,2.517-4.291,6.028-8.18,5.365
		c-1.574-0.268-2.921-1.87-4.371-2.866c0.1-0.179,0.2-0.357,0.301-0.536c-1.01,0.668-1.974,1.422-3.037,1.987
		c-3.07,1.635-8.113,1.204-10.373-0.876c-3.07-2.824-3.656-6.397-2.553-10.189c0.734-2.527,1.986-4.904,3.018-7.372
		c0.03,0.017-0.069-0.078-0.18-0.095c-5.3-0.808-4.239,0.247-5.279,4.237c-1.309,5.02-3.272,9.608-7.503,13.043
		c-2.634,2.139-5.211,4.184-8.639,4.728c-1.917,0.303-3.867,0.641-5.792,0.586c-3.615-0.101-5.843-2.228-6.994-5.698
		c-2.942,3.264-5.558,6.929-9.938,7.737c-4.286,0.791-8.473-0.094-11.758-3.279c-6.225,4.823-9.307,4.031-13.375-1.128
		c-1.425,1.269-2.89,2.499-4.269,3.82c-1.777,1.702-3.787,2.492-6.163,1.583c-2.423-0.927-3.331-3.083-3.438-5.397
		c-0.204-4.431,1.37-8.422,3.66-12.152c0.249-0.405,0.51-0.803,0.91-1.432c-1.17,0.172-2.112,0.312-2.657,0.392
		c-1.761,4.835-3.128,9.617-5.242,14.044c-1.501,3.143-3.783,6.093-8.079,5.852c-2.157-0.121-3.927-1.42-3.873-3.535
		c0.06-2.353,0.543-4.712,1.025-7.03c0.474-2.271,1.236-4.479,1.749-6.744c0.19-0.842,0.03-1.764,0.03-2.907
		c-2.462,0.439-3.036,2.229-3.641,4.02c-1.52,4.494-2.971,9.016-4.637,13.455c-0.678,1.805-1.984,3.225-4.014,3.829
		c-2.958,0.88-4.777-0.646-6.389-2.909c-2.608,3.066-5.481,5.715-9.812,3.888c-2.802-1.183-3.937-3.657-3.566-7.264
		c-3.496,3.94-7.064,6.981-7.122,12.567c-0.057,5.487-0.983,10.977-1.711,16.44c-0.446,3.352-0.96,6.743-1.951,9.961
		c-0.928,3.014-2.32,5.936-3.875,8.691c-2.017,3.571-5.235,4.767-8.464,3.599c-2.302-0.833-3.62-4.188-3.471-7.697
		c0.265-6.176,2.263-11.911,4.087-17.703c2.192-6.96,5.343-13.438,9.587-19.399c0.576-0.809,0.668-2.07,0.705-3.133
		C20.238,48.393,20.176,45.687,20.176,42.723z M203.454,24.837c-2.722,3.274-5.387,6.48-7.98,9.6
		c3.091,4.558,4.268,4.342,7.068,2.405c1.641-1.134,2.807-3.363,3.51-5.34C206.882,29.167,206.382,26.777,203.454,24.837z
		 M18.781,67.786c-3.289,4.734-7.732,21.696-6.625,25.021C17.673,85.391,17.271,76.523,18.781,67.786z M114.802,32.866
		c-0.188,0.033-0.377,0.067-0.566,0.102c-1.923,3.387-3.847,6.774-6.011,10.584c2.133,0.356,4.15,0.836,6.191,0.978
		c1.111,0.077,2.186-0.566,1.966-2.014C115.893,39.293,115.333,36.082,114.802,32.866z M38.47,49.732
		c4.593-3.453,3.984-8.481,5.105-13.191C40.171,38.741,37.607,45.363,38.47,49.732z M88.166,33.938
		c-2.826,2.822-4.991,7.542-5.302,11.113C87.411,42.823,87.203,38.358,88.166,33.938z"/>
	<path fill-rule="evenodd" clip-rule="evenodd" d="M22.938,21.052c-2.665-0.095-4.453-2.089-4.377-4.882
		c0.079-2.867,2.026-5.126,4.329-5.021c2.082,0.095,4.662,3.466,4.512,5.894C27.271,19.123,25.041,21.126,22.938,21.052z"/>
	<path fill-rule="evenodd" clip-rule="evenodd" d="M184.542,8.164c-0.059,2.123-2.242,4.255-4.243,4.143
		c-2.285-0.128-3.998-2.552-4.002-5.337c-0.002-1.926,1.652-3.433,4.806-3.485C182.576,3.46,184.594,6.255,184.542,8.164z"/>
</g>
<g id="Layer_19_copy_2" display="none" opacity="0.8">
	<path display="inline" opacity="0.3" fill-rule="evenodd" clip-rule="evenodd" fill="#CECECE" d="M22.938,21.052
		c-2.665-0.095-4.453-2.089-4.377-4.882c0.079-2.867,2.026-5.126,4.329-5.021c2.082,0.095,4.662,3.466,4.512,5.894
		C27.271,19.123,25.041,21.126,22.938,21.052z"/>
	<path display="inline" opacity="0.3" fill-rule="evenodd" clip-rule="evenodd" fill="#CECECE" d="M113.541,50.905l0.949-6.377
		c-0.024-0.001-0.049,0.003-0.074,0.001c-2.041-0.142-4.059-0.621-6.191-0.978c2.164-3.81,4.088-7.197,6.011-10.584
		c0.189-0.034,0.378-0.068,0.566-0.102c0.248,1.504,0.503,3.006,0.754,4.509l1.948-13.09c-0.587-1.082-1.438-1.997-3.059-2.075
		c-2.678-0.129-3.551,1.188-4.45,4.182c-1.989,6.616-5.168,12.451-10.579,16.892c-0.629,0.516-1.47,0.772-2.212,1.15
		c-0.436-0.881-1.193-1.741-1.251-2.646c-0.265-4.158-0.449-8.329-0.437-12.494c0.01-3.224-2.985-6.972-7.287-5.667
		c-1.69,0.513-3.298,1.301-4.988,1.818c-2.13,0.651-4.28,1.303-6.469,1.679c-2.097,0.36-3.454,1.384-4.015,3.501
		c-0.92,3.474-1.879,6.937-2.82,10.403c0.014-3.048,0.301-6.01,0.434-8.978c0.136-3.032-2.472-5.818-4.999-5.597
		c-6.66,0.585-9.89,5.243-10.915,10.884c-0.619,3.404-2.099,6.651-3.191,9.97c-0.228-0.044-0.455-0.088-0.683-0.132
		c-0.157-1.237-0.462-2.478-0.442-3.713c0.049-3.213,0.494-6.441,0.269-9.628c-0.119-1.673-0.945-3.629-2.104-4.824
		c-2.195-2.263-5.747-1.512-8.631,1.517c-2.823,2.964-5.565,6.005-8.312,9.04c-1.535,1.696-3.008,3.45-4.766,5.475
		c0-1.09,0.018-1.753-0.003-2.415c-0.117-3.628-0.121-7.266-0.41-10.88c-0.188-2.356-1.565-3.399-3.753-2.771
		c-1.068,0.308-2.084,1.441-2.734,2.452c-3.768,5.855-7.416,11.788-11.112,17.689c-1.442,2.304-2.994,4.545-4.32,6.913
		c-0.588,1.05-0.945,2.427,0.699,3.096c1.43,0.582,2.901,1.495,4.188-0.354c2.296-3.304,4.67-6.554,6.962-9.86
		c1.372-1.98,2.649-4.027,4.063-6.188c0,2.964,0.062,5.67-0.032,8.37c-0.037,1.062-0.129,2.324-0.705,3.133
		c-4.244,5.961-7.395,12.439-9.587,19.399c-1.824,5.792-3.822,11.527-4.087,17.703c-0.149,3.509,1.169,6.864,3.471,7.697
		c3.229,1.168,6.447-0.027,8.464-3.599c1.555-2.756,2.947-5.678,3.875-8.691c0.991-3.218,1.505-6.609,1.951-9.961
		c0.728-5.464,1.654-10.953,1.711-16.44c0.058-5.586,3.626-8.627,7.122-12.567c-0.37,3.606,0.765,6.081,3.566,7.264
		c4.33,1.827,7.203-0.821,9.812-3.888c1.611,2.263,3.431,3.789,6.389,2.909c2.029-0.604,3.336-2.024,4.014-3.829
		c1.666-4.439,3.117-8.961,4.637-13.455c0.604-1.791,1.179-3.58,3.641-4.02c0,1.144,0.16,2.065-0.03,2.907
		c-0.513,2.265-1.275,4.474-1.749,6.744c-0.482,2.318-0.966,4.678-1.025,7.03c-0.054,2.115,1.716,3.414,3.873,3.535
		c4.296,0.241,6.578-2.709,8.079-5.852c2.114-4.427,3.481-9.209,5.242-14.044c0.545-0.08,1.487-0.22,2.657-0.392
		c-0.4,0.629-0.661,1.026-0.91,1.432c-2.29,3.73-3.864,7.722-3.66,12.152c0.106,2.314,1.015,4.471,3.438,5.397
		c2.376,0.909,4.386,0.119,6.163-1.583c1.379-1.321,2.844-2.552,4.269-3.82c4.068,5.159,7.15,5.951,13.375,1.128
		C106.816,49.981,110.098,51.028,113.541,50.905z M12.156,92.808c-1.107-3.325,3.336-20.287,6.625-25.021
		C17.271,76.523,17.673,85.391,12.156,92.808z M38.47,49.732c-0.862-4.369,1.701-10.991,5.105-13.191
		C42.454,41.251,43.062,46.279,38.47,49.732z M82.864,45.052c0.311-3.571,2.476-8.291,5.302-11.113
		C87.203,38.358,87.411,42.823,82.864,45.052z"/>
</g>
<g id="descriptions">
</g>
</svg>
